<svg width="251" height="40" viewBox="0 0 251 40" fill="none" xmlns="http://www.w3.org/2000/svg">
<path d="M13.151 32.36C5.91497 32.36 1.59497 27.464 1.59497 19.94C1.59497 12.416 5.91497 7.52 13.151 7.52C20.279 7.52 24.131 11.264 24.131 17.24V17.564H18.371V17.384C18.371 13.928 16.931 12.74 13.115 12.74C9.04697 12.74 7.35497 14.216 7.35497 19.94C7.35497 25.664 9.04697 27.14 13.115 27.14C16.931 27.14 18.371 25.952 18.371 22.496V22.316H24.131V22.64C24.131 28.616 20.279 32.36 13.151 32.36ZM33.7584 32H28.3944V13.892H33.3984V16.808H33.6144C34.5144 14.972 36.1344 13.532 38.6904 13.532C42.4704 13.532 43.8744 16.34 43.8744 19.976V21.632H38.5104V20.66C38.5104 18.716 37.8984 18.104 36.2064 18.104C34.5504 18.104 33.7584 18.68 33.7584 20.66V32ZM50.9465 38.12C49.7225 38.12 48.3905 37.904 47.6345 37.724V33.26H50.6585C52.0265 33.26 52.5305 33.08 53.0705 31.928L53.3945 31.244L45.7985 13.892H51.8105L54.7625 21.452L56.0585 24.944H56.4545L57.5705 21.452L60.1265 13.892H66.1385L58.0745 33.26C56.5265 36.968 54.5105 38.12 50.9465 38.12ZM74.0379 38.048H68.6379V13.892H73.6419V16.556H73.8219C74.7939 14.612 76.8819 13.532 79.5819 13.532C84.6939 13.532 87.3579 17.24 87.3579 22.964C87.3579 28.652 84.5859 32.36 79.6899 32.36C76.8099 32.36 75.0459 31.172 74.2179 29.624H74.0379V38.048ZM74.0379 24.404C74.0379 26.852 75.4419 27.752 77.9979 27.752C81.1299 27.752 81.9579 26.24 81.9579 22.964C81.9579 19.652 81.1299 18.14 77.9979 18.14C75.4419 18.14 74.0379 19.04 74.0379 21.488V24.404ZM99.7422 32.072C95.0262 32.072 92.7582 30.344 92.7582 26.06V18.356H89.8782V13.892H92.9022L93.9102 9.68H98.1582V13.892H103.27V18.356H98.1582V25.448C98.1582 27.032 98.6982 27.212 101.038 27.212H103.27V31.712C102.406 31.892 101.002 32.072 99.7422 32.072ZM115.357 32.36C109.525 32.36 106.069 28.688 106.069 22.964C106.069 17.204 109.525 13.532 115.357 13.532C121.153 13.532 124.537 17.204 124.537 22.964C124.537 28.688 121.153 32.36 115.357 32.36ZM115.357 27.608C118.273 27.608 119.281 26.456 119.281 22.964C119.281 19.436 118.273 18.284 115.357 18.284C112.405 18.284 111.397 19.436 111.397 22.964C111.397 26.456 112.405 27.608 115.357 27.608Z" fill="#F2F2FA"/>
<path d="M149.737 17.564V18.564H150.737V17.564H149.737ZM143.977 17.564H142.977V18.564H143.977V17.564ZM143.977 22.316V21.316H142.977V22.316H143.977ZM149.737 22.316H150.737V21.316H149.737V22.316ZM138.757 31.36C135.375 31.36 132.77 30.2232 131.003 28.2957C129.226 26.3575 128.201 23.515 128.201 19.94H126.201C126.201 23.889 127.337 27.2565 129.529 29.6473C131.73 32.0488 134.903 33.36 138.757 33.36V31.36ZM128.201 19.94C128.201 16.365 129.226 13.5225 131.003 11.5843C132.77 9.6568 135.375 8.52 138.757 8.52V6.52C134.903 6.52 131.73 7.8312 129.529 10.2327C127.337 12.6235 126.201 15.991 126.201 19.94H128.201ZM138.757 8.52C142.154 8.52 144.631 9.41127 146.248 10.8794C147.853 12.3361 148.737 14.4742 148.737 17.24H150.737C150.737 14.0298 149.696 11.3079 147.592 9.39857C145.502 7.50073 142.488 6.52 138.757 6.52V8.52ZM148.737 17.24V17.564H150.737V17.24H148.737ZM149.737 16.564H143.977V18.564H149.737V16.564ZM144.977 17.564V17.384H142.977V17.564H144.977ZM144.977 17.384C144.977 15.551 144.6 14.0252 143.437 13.0119C142.312 12.0324 140.679 11.74 138.721 11.74V13.74C140.58 13.74 141.574 14.0416 142.123 14.5201C142.634 14.9648 142.977 15.761 142.977 17.384H144.977ZM138.721 11.74C136.61 11.74 134.784 12.1137 133.557 13.5419C132.375 14.9185 131.961 17.0433 131.961 19.94H133.961C133.961 17.1127 134.394 15.6375 135.074 14.8451C135.711 14.1043 136.765 13.74 138.721 13.74V11.74ZM131.961 19.94C131.961 22.8367 132.375 24.9615 133.557 26.3381C134.784 27.7663 136.61 28.14 138.721 28.14V26.14C136.765 26.14 135.711 25.7757 135.074 25.0349C134.394 24.2425 133.961 22.7673 133.961 19.94H131.961ZM138.721 28.14C140.679 28.14 142.312 27.8476 143.437 26.8681C144.6 25.8548 144.977 24.329 144.977 22.496H142.977C142.977 24.119 142.634 24.9152 142.123 25.3599C141.574 25.8384 140.58 26.14 138.721 26.14V28.14ZM144.977 22.496V22.316H142.977V22.496H144.977ZM143.977 23.316H149.737V21.316H143.977V23.316ZM148.737 22.316V22.64H150.737V22.316H148.737ZM148.737 22.64C148.737 25.4058 147.853 27.5439 146.248 29.0006C144.631 30.4687 142.154 31.36 138.757 31.36V33.36C142.488 33.36 145.502 32.3793 147.592 30.4814C149.696 28.5721 150.737 25.8502 150.737 22.64H148.737ZM162.641 31.36C159.939 31.36 157.895 30.5145 156.526 29.1103C155.153 27.7026 154.353 25.6252 154.353 22.964H152.353C152.353 26.0268 153.281 28.6474 155.094 30.5067C156.91 32.3695 159.51 33.36 162.641 33.36V31.36ZM154.353 22.964C154.353 20.2832 155.154 18.1968 156.526 16.7852C157.896 15.3774 159.939 14.532 162.641 14.532V12.532C159.51 12.532 156.91 13.5226 155.093 15.3908C153.28 17.2552 152.353 19.8848 152.353 22.964H154.353ZM162.641 14.532C165.322 14.532 167.336 15.3758 168.682 16.7801C170.034 18.1901 170.821 20.2776 170.821 22.964H172.821C172.821 19.8904 171.915 17.2619 170.126 15.3959C168.331 13.5242 165.755 12.532 162.641 12.532V14.532ZM170.821 22.964C170.821 25.6309 170.035 27.7093 168.683 29.1154C167.337 30.5161 165.322 31.36 162.641 31.36V33.36C165.755 33.36 168.331 32.3679 170.125 30.5016C171.914 28.6407 172.821 26.0211 172.821 22.964H170.821ZM162.641 28.608C164.191 28.608 165.551 28.3088 166.458 27.2436C167.322 26.2278 167.565 24.7443 167.565 22.964H165.565C165.565 24.6757 165.303 25.5142 164.935 25.9474C164.608 26.3312 164.006 26.608 162.641 26.608V28.608ZM167.565 22.964C167.565 21.1674 167.323 19.6756 166.46 18.6553C165.553 17.5832 164.191 17.284 162.641 17.284V19.284C164.006 19.284 164.606 19.5608 164.933 19.9467C165.303 20.3844 165.565 21.2326 165.565 22.964H167.565ZM162.641 17.284C161.076 17.284 159.705 17.5818 158.792 18.6525C157.922 19.6737 157.681 21.1679 157.681 22.964H159.681C159.681 21.2321 159.943 20.3863 160.315 19.9495C160.645 19.5622 161.254 19.284 162.641 19.284V17.284ZM157.681 22.964C157.681 24.7439 157.923 26.2296 158.794 27.2463C159.706 28.3103 161.076 28.608 162.641 28.608V26.608C161.254 26.608 160.643 26.3297 160.313 25.9447C159.942 25.5124 159.681 24.6761 159.681 22.964H157.681ZM181.125 32V33H182.125V32H181.125ZM175.761 32H174.761V33H175.761V32ZM175.761 7.88V6.88H174.761V7.88H175.761ZM181.125 7.88H182.125V6.88H181.125V7.88ZM181.125 31H175.761V33H181.125V31ZM176.761 32V7.88H174.761V32H176.761ZM175.761 8.88H181.125V6.88H175.761V8.88ZM180.125 7.88V32H182.125V7.88H180.125ZM191.354 32V33H192.354V32H191.354ZM185.99 32H184.99V33H185.99V32ZM185.99 7.88V6.88H184.99V7.88H185.99ZM191.354 7.88H192.354V6.88H191.354V7.88ZM191.354 31H185.99V33H191.354V31ZM186.99 32V7.88H184.99V32H186.99ZM185.99 8.88H191.354V6.88H185.99V8.88ZM190.354 7.88V32H192.354V7.88H190.354ZM212.786 24.152V25.152H213.625L213.771 24.3258L212.786 24.152ZM200.366 24.152V23.152H199.322L199.367 24.1948L200.366 24.152ZM207.53 25.88V24.88H206.53V25.88H207.53ZM212.858 25.88H213.858V24.88H212.858V25.88ZM200.402 20.876L199.408 20.7635L199.282 21.876H200.402V20.876ZM207.854 20.876V21.876H208.798L208.852 20.9336L207.854 20.876ZM204.362 31.36C201.444 31.36 199.477 30.5141 198.227 29.1507C196.963 27.7721 196.29 25.7099 196.29 23H194.29C194.29 26.0141 195.038 28.6319 196.753 30.5023C198.482 32.3879 201.051 33.36 204.362 33.36V31.36ZM196.29 23C196.29 20.2995 197.092 18.2007 198.447 16.7836C199.797 15.3719 201.795 14.532 204.398 14.532V12.532C201.349 12.532 198.793 13.5281 197.002 15.4014C195.216 17.2693 194.29 19.9045 194.29 23H196.29ZM204.398 14.532C206.917 14.532 208.812 15.2799 210.069 16.4682C211.322 17.6522 212.038 19.3637 212.038 21.488H214.038C214.038 18.8963 213.152 16.6298 211.443 15.0148C209.739 13.4041 207.314 12.532 204.398 12.532V14.532ZM212.038 21.488C212.038 22.415 211.904 23.3957 211.801 23.9782L213.771 24.3258C213.884 23.6843 214.038 22.577 214.038 21.488H212.038ZM212.786 23.152H200.366V25.152H212.786V23.152ZM199.367 24.1948C199.425 25.5485 199.73 26.7692 200.667 27.6067C201.584 28.4258 202.889 28.68 204.434 28.68V26.68C203.027 26.68 202.352 26.4302 202 26.1153C201.668 25.8188 201.415 25.2755 201.365 24.1092L199.367 24.1948ZM204.434 28.68C205.544 28.68 206.519 28.5671 207.245 28.1977C207.631 28.0017 207.97 27.7214 208.205 27.332C208.44 26.9438 208.53 26.5171 208.53 26.096H206.53C206.53 26.2329 206.502 26.2832 206.494 26.2966C206.487 26.3089 206.457 26.3548 206.338 26.4153C206.056 26.5589 205.484 26.68 204.434 26.68V28.68ZM208.53 26.096V25.88H206.53V26.096H208.53ZM207.53 26.88H212.858V24.88H207.53V26.88ZM211.858 25.88V26.24H213.858V25.88H211.858ZM211.858 26.24C211.858 27.8389 211.189 29.0664 209.975 29.9293C208.722 30.8188 206.825 31.36 204.362 31.36V33.36C207.082 33.36 209.433 32.7672 211.133 31.5597C212.87 30.3256 213.858 28.4931 213.858 26.24H211.858ZM204.218 16.96C202.816 16.96 201.646 17.2287 200.788 17.9267C199.908 18.6425 199.533 19.6626 199.408 20.7635L201.395 20.9885C201.487 20.1814 201.724 19.7435 202.05 19.4783C202.398 19.1953 203.028 18.96 204.218 18.96V16.96ZM200.402 21.876H207.854V19.876H200.402V21.876ZM208.852 20.9336C208.92 19.7514 208.562 18.6812 207.653 17.9408C206.792 17.2395 205.588 16.96 204.218 16.96V18.96C205.367 18.96 206.035 19.2025 206.39 19.4912C206.696 19.7408 206.895 20.1286 206.855 20.8184L208.852 20.9336ZM234.448 21.38V22.38H235.448V21.38H234.448ZM229.048 21.38H228.048V22.38H229.048V21.38ZM229.048 24.512V23.512H228.048V24.512H229.048ZM234.448 24.512H235.448V23.512H234.448V24.512ZM225.808 31.36C223.027 31.36 221.019 30.5192 219.701 29.1366C218.376 27.7465 217.628 25.6808 217.628 23H215.628C215.628 26.0432 216.482 28.6575 218.253 30.5164C220.032 32.3828 222.614 33.36 225.808 33.36V31.36ZM217.628 23C217.628 20.2971 218.422 18.2055 219.808 16.7927C221.191 15.3832 223.277 14.532 226.096 14.532V12.532C222.867 12.532 220.22 13.5168 218.38 15.3923C216.544 17.2645 215.628 19.9069 215.628 23H217.628ZM226.096 14.532C228.308 14.532 230.15 15.2077 231.424 16.3194C232.686 17.4211 233.448 18.998 233.448 20.948H235.448C235.448 18.434 234.446 16.3029 232.739 14.8126C231.043 13.3323 228.709 12.532 226.096 12.532V14.532ZM233.448 20.948V21.38H235.448V20.948H233.448ZM234.448 20.38H229.048V22.38H234.448V20.38ZM230.048 21.38V21.092H228.048V21.38H230.048ZM230.048 21.092C230.048 19.8764 229.698 18.8365 228.795 18.156C227.96 17.5265 226.838 17.356 225.664 17.356V19.356C226.722 19.356 227.292 19.5275 227.591 19.753C227.823 19.9275 228.048 20.2556 228.048 21.092H230.048ZM225.664 17.356C224.227 17.356 222.942 17.6966 222.068 18.7536C221.236 19.7594 220.956 21.2088 220.956 22.964H222.956C222.956 21.3352 223.235 20.4806 223.609 20.0284C223.94 19.6274 224.509 19.356 225.664 19.356V17.356ZM220.956 22.964C220.956 24.7031 221.236 26.1441 222.07 27.1452C222.944 28.1956 224.227 28.536 225.664 28.536V26.536C224.509 26.536 223.939 26.2644 223.607 25.8658C223.234 25.4179 222.956 24.5729 222.956 22.964H220.956ZM225.664 28.536C226.838 28.536 227.96 28.3655 228.795 27.736C229.698 27.0555 230.048 26.0156 230.048 24.8H228.048C228.048 25.6364 227.823 25.9645 227.591 26.139C227.292 26.3645 226.722 26.536 225.664 26.536V28.536ZM230.048 24.8V24.512H228.048V24.8H230.048ZM229.048 25.512H234.448V23.512H229.048V25.512ZM233.448 24.512V24.944H235.448V24.512H233.448ZM233.448 24.944C233.448 26.8828 232.668 28.4568 231.359 29.562C230.037 30.6789 228.119 31.36 225.808 31.36V33.36C228.502 33.36 230.903 32.5651 232.65 31.09C234.41 29.6032 235.448 27.4692 235.448 24.944H233.448ZM239.561 18.356H240.561V17.356H239.561V18.356ZM236.681 18.356H235.681V19.356H236.681V18.356ZM236.681 13.892V12.892H235.681V13.892H236.681ZM239.705 13.892V14.892H240.494L240.677 14.1247L239.705 13.892ZM240.713 9.68V8.68H239.924L239.74 9.44726L240.713 9.68ZM244.961 9.68H245.961V8.68H244.961V9.68ZM244.961 13.892H243.961V14.892H244.961V13.892ZM250.073 13.892H251.073V12.892H250.073V13.892ZM250.073 18.356V19.356H251.073V18.356H250.073ZM244.961 18.356V17.356H243.961V18.356H244.961ZM250.073 27.212H251.073V26.212H250.073V27.212ZM250.073 31.712L250.277 32.691L251.073 32.5251V31.712H250.073ZM246.545 31.072C244.273 31.072 242.815 30.649 241.926 29.9055C241.078 29.196 240.561 28.0314 240.561 26.06H238.561C238.561 28.3726 239.178 30.214 240.643 31.4395C242.067 32.631 244.1 33.072 246.545 33.072V31.072ZM240.561 26.06V18.356H238.561V26.06H240.561ZM239.561 17.356H236.681V19.356H239.561V17.356ZM237.681 18.356V13.892H235.681V18.356H237.681ZM236.681 14.892H239.705V12.892H236.681V14.892ZM240.677 14.1247L241.685 9.91274L239.74 9.44726L238.732 13.6593L240.677 14.1247ZM240.713 10.68H244.961V8.68H240.713V10.68ZM243.961 9.68V13.892H245.961V9.68H243.961ZM244.961 14.892H250.073V12.892H244.961V14.892ZM249.073 13.892V18.356H251.073V13.892H249.073ZM250.073 17.356H244.961V19.356H250.073V17.356ZM243.961 18.356V25.448H245.961V18.356H243.961ZM243.961 25.448C243.961 26.2846 244.088 27.2584 245.029 27.7934C245.418 28.0147 245.865 28.1061 246.295 28.1532C246.733 28.2012 247.253 28.212 247.841 28.212V26.212C247.259 26.212 246.834 26.2003 246.513 26.1651C246.183 26.1289 246.056 26.0763 246.017 26.0546C246.007 26.0487 246.015 26.0515 246.025 26.0645C246.035 26.0765 246.031 26.0775 246.021 26.05C245.995 25.9759 245.961 25.8074 245.961 25.448H243.961ZM247.841 28.212H250.073V26.212H247.841V28.212ZM249.073 27.212V31.712H251.073V27.212H249.073ZM249.869 30.733C249.063 30.9008 247.728 31.072 246.545 31.072V33.072C247.882 33.072 249.354 32.8832 250.277 32.691L249.869 30.733Z" fill="#F2F2FA"/>
</svg>
