<svg width="84" height="57" viewBox="0 0 84 57" fill="none" xmlns="http://www.w3.org/2000/svg">
<path d="M8.76731 21.24C3.94331 21.24 1.06331 17.976 1.06331 12.96C1.06331 7.944 3.94331 4.68 8.76731 4.68C13.5193 4.68 16.0873 7.176 16.0873 11.16V11.376H12.2473V11.256C12.2473 8.952 11.2873 8.16 8.74331 8.16C6.03131 8.16 4.90331 9.144 4.90331 12.96C4.90331 16.776 6.03131 17.76 8.74331 17.76C11.2873 17.76 12.2473 16.968 12.2473 14.664V14.544H16.0873V14.76C16.0873 18.744 13.5193 21.24 8.76731 21.24ZM22.5056 21H18.9296V8.928H22.2656V10.872H22.4096C23.0096 9.648 24.0896 8.688 25.7936 8.688C28.3136 8.688 29.2496 10.56 29.2496 12.984V14.088H25.6736V13.44C25.6736 12.144 25.2656 11.736 24.1376 11.736C23.0336 11.736 22.5056 12.12 22.5056 13.44V21ZM33.9643 25.08C33.1483 25.08 32.2603 24.936 31.7563 24.816V21.84H33.7723C34.6843 21.84 35.0203 21.72 35.3803 20.952L35.5963 20.496L30.5323 8.928H34.5403L36.5083 13.968L37.3723 16.296H37.6363L38.3803 13.968L40.0843 8.928H44.0923L38.7163 21.84C37.6843 24.312 36.3403 25.08 33.9643 25.08ZM49.3586 25.032H45.7586V8.928H49.0946V10.704H49.2146C49.8626 9.408 51.2546 8.688 53.0546 8.688C56.4626 8.688 58.2386 11.16 58.2386 14.976C58.2386 18.768 56.3906 21.24 53.1266 21.24C51.2066 21.24 50.0306 20.448 49.4786 19.416H49.3586V25.032ZM49.3586 15.936C49.3586 17.568 50.2946 18.168 51.9986 18.168C54.0866 18.168 54.6386 17.16 54.6386 14.976C54.6386 12.768 54.0866 11.76 51.9986 11.76C50.2946 11.76 49.3586 12.36 49.3586 13.992V15.936ZM66.4948 21.048C63.3508 21.048 61.8388 19.896 61.8388 17.04V11.904H59.9188V8.928H61.9348L62.6068 6.12H65.4388V8.928H68.8468V11.904H65.4388V16.632C65.4388 17.688 65.7988 17.808 67.3588 17.808H68.8468V20.808C68.2708 20.928 67.3348 21.048 66.4948 21.048ZM76.9046 21.24C73.0166 21.24 70.7126 18.792 70.7126 14.976C70.7126 11.136 73.0166 8.688 76.9046 8.688C80.7686 8.688 83.0246 11.136 83.0246 14.976C83.0246 18.792 80.7686 21.24 76.9046 21.24ZM76.9046 18.072C78.8486 18.072 79.5206 17.304 79.5206 14.976C79.5206 12.624 78.8486 11.856 76.9046 11.856C74.9366 11.856 74.2646 12.624 74.2646 14.976C74.2646 17.304 74.9366 18.072 76.9046 18.072Z" fill="#F2F2FA"/>
<path d="M16.1581 41.0427V41.7094H16.8248V41.0427H16.1581ZM12.3181 41.0427H11.6514V41.7094H12.3181V41.0427ZM12.3181 44.2107V43.5441H11.6514V44.2107H12.3181ZM16.1581 44.2107H16.8248V43.5441H16.1581V44.2107ZM8.83809 50.2401C6.58353 50.2401 4.84662 49.4822 3.66849 48.1972C2.48379 46.9051 1.80076 45.0101 1.80076 42.6267H0.467426C0.467426 45.2594 1.22439 47.5044 2.6857 49.0983C4.15356 50.6993 6.26865 51.5734 8.83809 51.5734V50.2401ZM1.80076 42.6267C1.80076 40.2434 2.48379 38.3484 3.66849 37.0563C4.84662 35.7713 6.58353 35.0134 8.83809 35.0134V33.6801C6.26865 33.6801 4.15356 34.5542 2.6857 36.1552C1.22439 37.7491 0.467426 39.9941 0.467426 42.6267H1.80076ZM8.83809 35.0134C11.1029 35.0134 12.7538 35.6076 13.832 36.5864C14.9018 37.5575 15.4914 38.9829 15.4914 40.8267H16.8248C16.8248 38.6866 16.1304 36.872 14.7282 35.5991C13.3344 34.3339 11.3253 33.6801 8.83809 33.6801V35.0134ZM15.4914 40.8267V41.0427H16.8248V40.8267H15.4914ZM16.1581 40.3761H12.3181V41.7094H16.1581V40.3761ZM12.9848 41.0427V40.9227H11.6514V41.0427H12.9848ZM12.9848 40.9227C12.9848 39.7008 12.7336 38.6836 11.9579 38.008C11.2082 37.355 10.1191 37.1601 8.81409 37.1601V38.4934C10.0531 38.4934 10.716 38.6945 11.0822 39.0135C11.4226 39.3099 11.6514 39.8407 11.6514 40.9227H12.9848ZM8.81409 37.1601C7.40643 37.1601 6.18918 37.4092 5.37137 38.3614C4.58313 39.2791 4.30743 40.6956 4.30743 42.6267H5.64076C5.64076 40.7419 5.92905 39.7584 6.38282 39.2301C6.80701 38.7363 7.50976 38.4934 8.81409 38.4934V37.1601ZM4.30743 42.6267C4.30743 44.5579 4.58313 45.9744 5.37137 46.8921C6.18918 47.8443 7.40643 48.0934 8.81409 48.0934V46.7601C7.50976 46.7601 6.80701 46.5172 6.38282 46.0234C5.92905 45.4951 5.64076 44.5116 5.64076 42.6267H4.30743ZM8.81409 48.0934C10.1191 48.0934 11.2082 47.8985 11.9579 47.2455C12.7336 46.5699 12.9848 45.5527 12.9848 44.3307H11.6514C11.6514 45.4128 11.4226 45.9436 11.0822 46.24C10.716 46.559 10.0531 46.7601 8.81409 46.7601V48.0934ZM12.9848 44.3307V44.2107H11.6514V44.3307H12.9848ZM12.3181 44.8774H16.1581V43.5441H12.3181V44.8774ZM15.4914 44.2107V44.4267H16.8248V44.2107H15.4914ZM15.4914 44.4267C15.4914 46.2706 14.9018 47.696 13.832 48.6671C12.7538 49.6459 11.1029 50.2401 8.83809 50.2401V51.5734C11.3253 51.5734 13.3344 50.9196 14.7282 49.6544C16.1304 48.3815 16.8248 46.5669 16.8248 44.4267H15.4914ZM24.7604 50.2401C22.9592 50.2401 21.5966 49.6764 20.6837 48.7403C19.7685 47.8018 19.2351 46.4169 19.2351 44.6427H17.9017C17.9017 46.6846 18.5204 48.4317 19.7291 49.6712C20.9402 50.9131 22.6736 51.5734 24.7604 51.5734V50.2401ZM19.2351 44.6427C19.2351 42.8556 19.7691 41.4646 20.6843 40.5235C21.5971 39.585 22.9593 39.0214 24.7604 39.0214V37.6881C22.6735 37.6881 20.9397 38.3485 19.7285 39.594C18.5197 40.8369 17.9017 42.5899 17.9017 44.6427H19.2351ZM24.7604 39.0214C26.548 39.0214 27.8906 39.584 28.7882 40.5201C29.6895 41.4601 30.2137 42.8518 30.2137 44.6427H31.5471C31.5471 42.5937 30.9433 40.8413 29.7506 39.5974C28.5542 38.3495 26.8368 37.6881 24.7604 37.6881V39.0214ZM30.2137 44.6427C30.2137 46.4207 29.6901 47.8063 28.7888 48.7437C27.8911 49.6775 26.5481 50.2401 24.7604 50.2401V51.5734C26.8367 51.5734 28.5538 50.912 29.75 49.6678C30.9427 48.4272 31.5471 46.6808 31.5471 44.6427H30.2137ZM24.7604 48.4054C25.7939 48.4054 26.7008 48.206 27.3051 47.4958C27.8814 46.8186 28.0431 45.8296 28.0431 44.6427H26.7097C26.7097 45.7839 26.5354 46.3429 26.2897 46.6317C26.072 46.8875 25.6709 47.0721 24.7604 47.0721V48.4054ZM28.0431 44.6427C28.0431 43.445 27.8817 42.4505 27.3064 41.7703C26.702 41.0556 25.794 40.8561 24.7604 40.8561V42.1894C25.6708 42.1894 26.0708 42.3739 26.2884 42.6312C26.5351 42.923 26.7097 43.4885 26.7097 44.6427H28.0431ZM24.7604 40.8561C23.717 40.8561 22.803 41.0546 22.1949 41.7684C21.615 42.4492 21.4537 43.4453 21.4537 44.6427H22.7871C22.7871 43.4882 22.9618 42.9243 23.2099 42.6331C23.4298 42.3749 23.8358 42.1894 24.7604 42.1894V40.8561ZM21.4537 44.6427C21.4537 45.8293 21.6153 46.8198 22.1962 47.4976C22.8042 48.2069 23.717 48.4054 24.7604 48.4054V47.0721C23.8358 47.0721 23.4286 46.8866 23.2086 46.6299C22.9615 46.3417 22.7871 45.7842 22.7871 44.6427H21.4537ZM37.0833 50.6667V51.3334H37.7499V50.6667H37.0833ZM33.5073 50.6667H32.8406V51.3334H33.5073V50.6667ZM33.5073 34.5867V33.9201H32.8406V34.5867H33.5073ZM37.0833 34.5867H37.7499V33.9201H37.0833V34.5867ZM37.0833 50.0001H33.5073V51.3334H37.0833V50.0001ZM34.1739 50.6667V34.5867H32.8406V50.6667H34.1739ZM33.5073 35.2534H37.0833V33.9201H33.5073V35.2534ZM36.4166 34.5867V50.6667H37.7499V34.5867H36.4166ZM43.9027 50.6667V51.3334H44.5693V50.6667H43.9027ZM40.3267 50.6667H39.66V51.3334H40.3267V50.6667ZM40.3267 34.5867V33.9201H39.66V34.5867H40.3267ZM43.9027 34.5867H44.5693V33.9201H43.9027V34.5867ZM43.9027 50.0001H40.3267V51.3334H43.9027V50.0001ZM40.9933 50.6667V34.5867H39.66V50.6667H40.9933ZM40.3267 35.2534H43.9027V33.9201H40.3267V35.2534ZM43.236 34.5867V50.6667H44.5693V34.5867H43.236ZM58.1905 45.4347V46.1014H58.7499L58.8471 45.5506L58.1905 45.4347ZM49.9105 45.4347V44.7681H49.2147L49.2445 45.4633L49.9105 45.4347ZM54.6865 46.5867V45.9201H54.0199V46.5867H54.6865ZM58.2385 46.5867H58.9052V45.9201H58.2385V46.5867ZM49.9345 43.2507L49.2721 43.1758L49.1881 43.9174H49.9345V43.2507ZM54.9025 43.2507V43.9174H55.5318L55.5681 43.2891L54.9025 43.2507ZM52.5745 50.2401C50.6296 50.2401 49.3183 49.6761 48.4849 48.7672C47.6422 47.8481 47.1932 46.4734 47.1932 44.6667H45.8599C45.8599 46.6761 46.3588 48.4214 47.5022 49.6683C48.6547 50.9254 50.3675 51.5734 52.5745 51.5734V50.2401ZM47.1932 44.6667C47.1932 42.8664 47.728 41.4672 48.6314 40.5225C49.5313 39.5813 50.8632 39.0214 52.5985 39.0214V37.6881C50.5659 37.6881 48.8618 38.3522 47.6677 39.601C46.477 40.8463 45.8599 42.6031 45.8599 44.6667H47.1932ZM52.5985 39.0214C54.2783 39.0214 55.5415 39.52 56.3796 40.3122C57.2146 41.1016 57.6919 42.2425 57.6919 43.6587H59.0252C59.0252 41.931 58.4345 40.4199 57.2955 39.3433C56.1596 38.2695 54.5428 37.6881 52.5985 37.6881V39.0214ZM57.6919 43.6587C57.6919 44.2768 57.6025 44.9306 57.534 45.3189L58.8471 45.5506C58.9225 45.1229 59.0252 44.3847 59.0252 43.6587H57.6919ZM58.1905 44.7681H49.9105V46.1014H58.1905V44.7681ZM49.2445 45.4633C49.2832 46.3657 49.4865 47.1795 50.1113 47.7379C50.7224 48.284 51.5924 48.4534 52.6225 48.4534V47.1201C51.6847 47.1201 51.2346 46.9535 50.9998 46.7436C50.7785 46.546 50.6099 46.1838 50.5766 45.4062L49.2445 45.4633ZM52.6225 48.4534C53.3623 48.4534 54.013 48.3782 54.4969 48.1319C54.7537 48.0012 54.9798 47.8143 55.1369 47.5547C55.2935 47.2959 55.3532 47.0115 55.3532 46.7307H54.0199C54.0199 46.822 54.0016 46.8556 53.9961 46.8645C53.9912 46.8727 53.9714 46.9033 53.8922 46.9436C53.7041 47.0393 53.3227 47.1201 52.6225 47.1201V48.4534ZM55.3532 46.7307V46.5867H54.0199V46.7307H55.3532ZM54.6865 47.2534H58.2385V45.9201H54.6865V47.2534ZM57.5719 46.5867V46.8267H58.9052V46.5867H57.5719ZM57.5719 46.8267C57.5719 47.8927 57.1262 48.711 56.3165 49.2863C55.4817 49.8793 54.2168 50.2401 52.5745 50.2401V51.5734C54.3883 51.5734 55.9554 51.1782 57.0886 50.3732C58.2469 49.5505 58.9052 48.3288 58.9052 46.8267H57.5719ZM52.4785 40.6401C51.5438 40.6401 50.7639 40.8192 50.1918 41.2846C49.6053 41.7617 49.3552 42.4418 49.2721 43.1758L50.597 43.3257C50.6579 42.7877 50.8158 42.4958 51.0332 42.3189C51.2651 42.1303 51.6853 41.9734 52.4785 41.9734V40.6401ZM49.9345 43.9174H54.9025V42.5841H49.9345V43.9174ZM55.5681 43.2891C55.6136 42.501 55.3745 41.7876 54.7686 41.2939C54.1949 40.8264 53.3923 40.6401 52.4785 40.6401V41.9734C53.2447 41.9734 53.6901 42.1351 53.9264 42.3276C54.1306 42.4939 54.2635 42.7525 54.237 43.2123L55.5681 43.2891ZM72.6322 43.5867V44.2534H73.2988V43.5867H72.6322ZM69.0322 43.5867H68.3655V44.2534H69.0322V43.5867ZM69.0322 45.6747V45.0081H68.3655V45.6747H69.0322ZM72.6322 45.6747H73.2988V45.0081H72.6322V45.6747ZM66.8722 50.2401C65.0178 50.2401 63.6791 49.6796 62.8008 48.7578C61.9177 47.8311 61.4188 46.454 61.4188 44.6667H60.0855C60.0855 46.6955 60.6546 48.4384 61.8355 49.6777C63.0212 50.9219 64.7425 51.5734 66.8722 51.5734V50.2401ZM61.4188 44.6667C61.4188 42.8648 61.9483 41.4704 62.8721 40.5286C63.7938 39.5889 65.1847 39.0214 67.0642 39.0214V37.6881C64.9116 37.6881 63.1465 38.3446 61.9202 39.5949C60.696 40.8431 60.0855 42.6047 60.0855 44.6667H61.4188ZM67.0642 39.0214C68.5386 39.0214 69.7665 39.4718 70.6158 40.213C71.4574 40.9475 71.9655 41.9988 71.9655 43.2987H73.2988C73.2988 41.6227 72.6309 40.202 71.4925 39.2085C70.3618 38.2216 68.8058 37.6881 67.0642 37.6881V39.0214ZM71.9655 43.2987V43.5867H73.2988V43.2987H71.9655ZM72.6322 42.9201H69.0322V44.2534H72.6322V42.9201ZM69.6988 43.5867V43.3947H68.3655V43.5867H69.6988ZM69.6988 43.3947C69.6988 42.5844 69.4652 41.8911 68.8635 41.4374C68.3069 41.0178 67.5588 40.9041 66.7762 40.9041V42.2374C67.4815 42.2374 67.8614 42.3517 68.0608 42.5021C68.2151 42.6184 68.3655 42.8371 68.3655 43.3947H69.6988ZM66.7762 40.9041C65.818 40.9041 64.9613 41.1312 64.3785 41.8358C63.8239 42.5063 63.6375 43.4726 63.6375 44.6427H64.9708C64.9708 43.5569 65.1565 42.9872 65.4059 42.6857C65.627 42.4183 66.0063 42.2374 66.7762 42.2374V40.9041ZM63.6375 44.6427C63.6375 45.8022 63.8243 46.7628 64.3797 47.4302C64.9625 48.1305 65.8182 48.3574 66.7762 48.3574V47.0241C66.0061 47.0241 65.6258 46.843 65.4046 46.5773C65.156 46.2787 64.9708 45.7153 64.9708 44.6427H63.6375ZM66.7762 48.3574C67.5588 48.3574 68.3069 48.2437 68.8635 47.8241C69.4652 47.3704 69.6988 46.6771 69.6988 45.8667H68.3655C68.3655 46.4244 68.2151 46.6431 68.0608 46.7594C67.8614 46.9098 67.4815 47.0241 66.7762 47.0241V48.3574ZM69.6988 45.8667V45.6747H68.3655V45.8667H69.6988ZM69.0322 46.3414H72.6322V45.0081H69.0322V46.3414ZM71.9655 45.6747V45.9627H73.2988V45.6747H71.9655ZM71.9655 45.9627C71.9655 47.2553 71.4454 48.3046 70.573 49.0414C69.6913 49.786 68.4126 50.2401 66.8722 50.2401V51.5734C68.6677 51.5734 70.269 51.0434 71.4333 50.0601C72.6069 49.0689 73.2988 47.6462 73.2988 45.9627H71.9655ZM76.0405 41.5707H76.7072V40.9041H76.0405V41.5707ZM74.1205 41.5707H73.4539V42.2374H74.1205V41.5707ZM74.1205 38.5947V37.9281H73.4539V38.5947H74.1205ZM76.1365 38.5947V39.2614H76.6625L76.7849 38.7499L76.1365 38.5947ZM76.8085 35.7867V35.1201H76.2826L76.1602 35.6316L76.8085 35.7867ZM79.6405 35.7867H80.3072V35.1201H79.6405V35.7867ZM79.6405 38.5947H78.9739V39.2614H79.6405V38.5947ZM83.0485 38.5947H83.7152V37.9281H83.0485V38.5947ZM83.0485 41.5707V42.2374H83.7152V41.5707H83.0485ZM79.6405 41.5707V40.9041H78.9739V41.5707H79.6405ZM83.0485 47.4747H83.7152V46.8081H83.0485V47.4747ZM83.0485 50.4747L83.1845 51.1274L83.7152 51.0168V50.4747H83.0485ZM80.6965 50.0481C79.1823 50.0481 78.2098 49.7661 77.6173 49.2704C77.0519 48.7974 76.7072 48.021 76.7072 46.7067H75.3739C75.3739 48.2485 75.7852 49.4761 76.7618 50.2931C77.7113 51.0874 79.0668 51.3814 80.6965 51.3814V50.0481ZM76.7072 46.7067V41.5707H75.3739V46.7067H76.7072ZM76.0405 40.9041H74.1205V42.2374H76.0405V40.9041ZM74.7872 41.5707V38.5947H73.4539V41.5707H74.7872ZM74.1205 39.2614H76.1365V37.9281H74.1205V39.2614ZM76.7849 38.7499L77.4569 35.9419L76.1602 35.6316L75.4882 38.4396L76.7849 38.7499ZM76.8085 36.4534H79.6405V35.1201H76.8085V36.4534ZM78.9739 35.7867V38.5947H80.3072V35.7867H78.9739ZM79.6405 39.2614H83.0485V37.9281H79.6405V39.2614ZM82.3819 38.5947V41.5707H83.7152V38.5947H82.3819ZM83.0485 40.9041H79.6405V42.2374H83.0485V40.9041ZM78.9739 41.5707V46.2987H80.3072V41.5707H78.9739ZM78.9739 46.2987C78.9739 46.8565 79.0586 47.5057 79.6861 47.8623C79.9457 48.0099 80.2433 48.0708 80.5298 48.1022C80.822 48.1342 81.1686 48.1414 81.5605 48.1414V46.8081C81.1725 46.8081 80.889 46.8003 80.6751 46.7768C80.4553 46.7527 80.3704 46.7176 80.345 46.7032C80.338 46.6992 80.343 46.7011 80.3502 46.7097C80.3568 46.7178 80.3543 46.7184 80.3476 46.7001C80.3297 46.6507 80.3072 46.5383 80.3072 46.2987H78.9739ZM81.5605 48.1414H83.0485V46.8081H81.5605V48.1414ZM82.3819 47.4747V50.4747H83.7152V47.4747H82.3819ZM82.9126 49.8221C82.3756 49.934 81.4853 50.0481 80.6965 50.0481V51.3814C81.5877 51.3814 82.5695 51.2555 83.1845 51.1274L82.9126 49.8221Z" fill="#F2F2FA"/>
</svg>
