<svg width="23" height="30" viewBox="0 0 23 30" fill="none" xmlns="http://www.w3.org/2000/svg">
<path d="M15.1523 22.9215L16.6812 23.6957C18.3227 24.2384 19.1201 20.7119 16.4809 19.5338L15.6461 18.9742L17.0409 19.5338C18.6116 20.272 20.4432 16.757 17.2591 15.2175L15.992 14.9673L18.2136 15.2175C19.5969 16.0345 19.844 12.5093 17.6758 11.4808L10.6027 10.0659C11.1036 5.22427 11.4931 2.10778 7.90339 1.46757C6.80728 1.30061 5.45473 1.46757 5.73299 2.5806C7.17992 9.09183 4.3417 12.6442 3.55323 13.4683C0.348144 16.6729 0.348144 21.8694 3.55323 25.0741C4.94496 26.3808 6.29573 26.2881 9.68424 26.2881C10.3245 26.2881 18.4108 28.2827 18.4108 28.2827C21.4717 29.0899 23.1515 25.802 21.0924 25.1066L20.4112 24.6391" fill="#FADCBC"/>
<path d="M15.1523 22.9215L16.6812 23.6957C18.3227 24.2384 19.1201 20.7119 16.4809 19.5338L15.6461 18.9742L17.0409 19.5338C18.6116 20.272 20.4432 16.757 17.2591 15.2175L15.992 14.9673L18.2136 15.2175C19.5969 16.0345 19.844 12.5093 17.6758 11.4808L10.6027 10.0659C11.1036 5.22427 11.4931 2.10778 7.90339 1.46757C6.80728 1.30061 5.45473 1.46757 5.73298 2.5806C7.17992 9.09183 4.3417 12.6442 3.55323 13.4683C0.348143 16.6729 0.348143 21.8694 3.55323 25.0741C4.94496 26.3807 6.29573 26.2881 9.68424 26.2881C10.3245 26.2881 18.4108 28.2827 18.4108 28.2827C21.4717 29.0899 23.1515 25.802 21.0924 25.1066L20.4112 24.6391" stroke="#FADCBC" stroke-width="0.445212"/>
<path d="M17 15.5C19.6076 16.1567 21.2687 12.2809 17.5 11.5L10.4533 9.65372C10.9542 4.81204 11.3437 1.69555 7.75398 1.05534C6.65787 0.888381 5.30531 1.05534 5.58357 2.16837C7.03051 8.67959 4.19228 12.2319 3.40381 13.056C0.19873 16.2607 0.19873 21.4572 3.40381 24.6618C4.79554 25.9685 6.11149 26.5 9.5 26.5C10.1402 26.5 18.5 28.5 18.5 28.5C21.5608 29.3072 22.7144 25.5264 20.6558 24.8306L18.7209 24.1329" stroke="black" stroke-width="0.890424" stroke-linecap="round" stroke-linejoin="round"/>
<path d="M16.3315 19.5742C18.9249 20.2563 19.9213 16.2783 16.6984 15.5517" stroke="black" stroke-width="0.890424" stroke-linecap="round" stroke-linejoin="round"/>
<path d="M15.7563 23.6697C18.3506 24.3687 18.9565 20.2879 16.3311 19.5737" stroke="black" stroke-width="0.890424" stroke-linecap="round" stroke-linejoin="round"/>
<path d="M15.7568 23.6696L13.2222 22.9649M16.3315 19.5741L14.093 18.9361M16.6984 15.5516L14.8583 15.1763" stroke="black" stroke-width="0.890424" stroke-miterlimit="10" stroke-linecap="round" stroke-linejoin="round"/>
</svg>
