<svg width="84" height="84" viewBox="0 0 84 84" fill="none" xmlns="http://www.w3.org/2000/svg">
<mask id="mask0_203_269" style="mask-type:alpha" maskUnits="userSpaceOnUse" x="0" y="0" width="84" height="84">
<rect width="84" height="84" fill="white"/>
</mask>
<g mask="url(#mask0_203_269)">
<path d="M48.8251 23.9651C48.8251 18.8794 44.7183 14.756 39.653 14.756C34.5877 14.756 30.481 18.8794 30.481 23.9651C30.481 25.9915 31.1339 27.8656 32.2397 29.3864C33.5478 31.3664 36.9511 33.6025 36.9511 34.9424V35.5957H36.7334V36.7436L42.522 36.141C42.5396 36.141 42.555 36.1454 42.5726 36.1454V35.5935H42.3549V34.9402C42.3549 33.6003 45.756 31.3642 47.0663 29.3842C48.1721 27.8633 48.8251 25.9893 48.8251 23.9629V23.9651ZM40.0026 15.7471C40.2928 15.7471 40.528 15.9833 40.528 16.2747C40.528 16.5661 40.2928 16.8022 40.0026 16.8022C39.7124 16.8022 39.4771 16.5661 39.4771 16.2747C39.4771 15.9833 39.7124 15.7471 40.0026 15.7471ZM45.2833 26.3204C45.18 27.0113 44.5754 29.2827 41.1172 29.8124C40.9325 31.9183 40.9347 34.2161 40.9611 35.5979H40.5104C40.4818 34.2228 40.4752 31.958 40.6555 29.8698C40.0136 29.9339 39.2903 29.9339 38.6483 29.8698C38.8264 31.958 38.8198 34.2206 38.7934 35.5979H38.3427C38.3691 34.2206 38.3735 31.9293 38.1866 29.8124C34.7306 29.2827 34.1238 27.0113 34.0205 26.3204C33.8842 25.411 34.203 24.5015 34.779 24.155C35.1351 23.9431 35.5616 23.8967 36.0101 24.0269C36.6961 24.2234 37.3446 24.8128 37.7447 25.5986C38.1383 26.3712 38.4285 27.6536 38.6043 29.4107C39.2683 29.4836 40.0312 29.4836 40.6951 29.4107C40.871 27.6536 41.1612 26.3712 41.5547 25.5986C41.957 24.8106 42.6056 24.2234 43.2893 24.0269C43.74 23.8967 44.1665 23.9409 44.5205 24.155C45.0965 24.5015 45.4152 25.411 45.2789 26.3204H45.2833ZM46.7717 23.9651C46.7717 20.6894 44.5644 17.8397 41.4052 17.0362C41.1238 16.9656 40.9523 16.6764 41.0249 16.3939C41.0974 16.1113 41.3832 15.9392 41.6646 16.012C45.2921 16.9347 47.8248 20.2038 47.8248 23.9651C47.8248 24.2565 47.5895 24.4927 47.2993 24.4927C47.0091 24.4927 46.7739 24.2565 46.7739 23.9651H46.7717Z" fill="white"/>
<path d="M36.2619 24.6632C36.1566 24.6287 36.055 24.6124 35.957 24.6124C35.8027 24.6124 35.6611 24.6551 35.5377 24.7384C35.1964 24.966 35.0004 25.6588 35.0875 26.313C35.2854 27.782 36.4162 28.8385 38.1242 29.1616C37.9845 27.6438 37.763 26.5467 37.4672 25.9006C37.1822 25.2768 36.732 24.8136 36.2619 24.6632Z" fill="white"/>
<path d="M44.415 24.7384C44.2607 24.6551 44.0837 24.6124 43.8908 24.6124C43.7683 24.6124 43.6412 24.6287 43.5096 24.6632C42.9242 24.8136 42.3593 25.2768 42.003 25.9006C41.6332 26.5467 41.3564 27.6438 41.1816 29.1616C43.3168 28.8385 44.7304 27.782 44.9777 26.313C45.0866 25.6568 44.8393 24.966 44.415 24.7384Z" fill="white"/>
<path d="M37.3624 38.6618C37.3887 38.785 37.4373 38.9038 37.5021 39.0182L42.5993 38.6354C42.6297 38.6325 42.6601 38.6383 42.6884 38.6413C42.7026 38.5665 42.7107 38.4917 42.7107 38.4169V38.26L37.3786 38.6603C37.3786 38.6603 37.3664 38.6603 37.3604 38.6603L37.3624 38.6618Z" fill="white"/>
<path d="M37.3604 37.1429V37.5016L42.6644 37.1035C42.6805 37.1035 42.6946 37.1065 42.7107 37.1065V36.7434L37.4067 37.1415C37.3906 37.1415 37.3765 37.1429 37.3604 37.1415V37.1429Z" fill="white"/>
<path d="M39.3878 40.5346H40.3091C41.2352 40.5346 42.0949 40.0486 42.5923 39.2467C42.6373 39.1738 42.6728 39.096 42.7107 39.0182L37.3604 39.5869C37.8696 40.1798 38.6038 40.5322 39.3878 40.5322V40.5346Z" fill="white"/>
<path d="M24.0426 9.32457C23.863 9.14421 23.5694 9.14421 23.3876 9.32239C23.2058 9.50058 23.2058 9.79176 23.3854 9.97211L31.4381 18.0317C31.5279 18.123 31.6484 18.1686 31.7666 18.1686C31.8849 18.1686 32.0032 18.1251 32.093 18.036C32.2749 17.8579 32.2749 17.5667 32.0952 17.3863L24.0426 9.32457Z" fill="white"/>
<path d="M56.3304 9.4633C56.1508 9.28294 55.8573 9.28294 55.6754 9.46113L47.7323 17.2708C47.5505 17.449 47.5505 17.7402 47.7302 17.9205C47.82 18.0118 47.9404 18.0553 48.0587 18.0553C48.177 18.0553 48.2953 18.0118 48.3851 17.9227L56.3282 10.113C56.5101 9.93484 56.5101 9.64366 56.3304 9.4633Z" fill="white"/>
<path d="M33.6688 9.28067C33.5746 9.04599 33.3052 8.93082 33.0686 9.02426C32.832 9.1177 32.7159 9.38497 32.8101 9.61966L35.027 15.1303C35.0992 15.3107 35.2723 15.4193 35.4563 15.4193C35.5133 15.4193 35.5724 15.4085 35.6272 15.3867C35.8638 15.2933 35.9799 15.026 35.8857 14.7913L33.6688 9.28067Z" fill="white"/>
<path d="M29.8357 20.9885L23.7348 18.3897C23.5005 18.2897 23.2288 18.3984 23.1259 18.6309C23.0251 18.8634 23.1346 19.1328 23.369 19.2349L29.4698 21.8338C29.529 21.8599 29.5903 21.8708 29.6516 21.8708C29.8313 21.8708 30.0021 21.7665 30.0766 21.5926C30.1774 21.3601 30.0679 21.0907 29.8335 20.9885H29.8357Z" fill="white"/>
<path d="M56.6306 19.066C56.5364 18.8291 56.2648 18.7161 56.0304 18.8095L50.153 21.1368C49.9165 21.2302 49.8004 21.4975 49.8945 21.7322C49.9668 21.9126 50.1399 22.0212 50.3239 22.0212C50.3809 22.0212 50.44 22.0103 50.4948 21.9886L56.3721 19.6614C56.6087 19.5679 56.7248 19.3006 56.6306 19.066Z" fill="white"/>
<path d="M46.9464 9.2024C46.712 9.10245 46.4404 9.2111 46.3396 9.4436L44.0329 14.7696C43.9321 15.0021 44.0395 15.2715 44.2761 15.3737C44.3352 15.3997 44.3966 15.4106 44.4579 15.4106C44.6375 15.4106 44.8084 15.3063 44.8829 15.1325L47.1896 9.80649C47.2903 9.57398 47.183 9.30453 46.9464 9.2024Z" fill="white"/>
<path d="M39.9651 2.62476C39.7088 2.62476 39.5029 2.83119 39.5029 3.08325V13.9851C39.5029 14.2393 39.711 14.4436 39.9651 14.4436C40.2193 14.4436 40.4274 14.2372 40.4274 13.9851V3.08325C40.4274 2.82902 40.2193 2.62476 39.9651 2.62476Z" fill="white"/>
<path d="M30.3346 55.9473H9.84375V56.1211C9.84375 56.986 10.1241 57.7835 10.5973 58.4354C11.3202 59.4284 12.4988 60.0738 13.8263 60.0738H35.8308" fill="white"/>
<path d="M30.3346 55.9473H9.84375V56.1211C9.84375 56.986 10.1241 57.7835 10.5973 58.4354C11.3202 59.4284 12.4988 60.0738 13.8263 60.0738H35.8308" stroke="white" stroke-width="1.15068" stroke-linecap="round" stroke-linejoin="round"/>
<path d="M53.0399 60.0737H66.1003C67.43 60.0737 68.6063 59.4283 69.3292 58.4353C69.8046 57.7855 70.0828 56.9859 70.0828 56.121V55.9472H46.4506V55.9863C46.4506 56.2992 46.2403 56.5535 45.9796 56.5535H45.1494C47.7803 58.0072 50.4309 59.1893 53.0377 60.0715L53.0399 60.0737ZM60.4573 57.0076C60.4573 56.8881 60.5559 56.7903 60.6764 56.7903H63.9141C64.0345 56.7903 64.1331 56.8881 64.1331 57.0076V57.0598C64.1331 57.1793 64.0345 57.2771 63.9141 57.2771H60.6764C60.5559 57.2771 60.4573 57.1793 60.4573 57.0598V57.0076Z" fill="white"/>
<path d="M54.9722 26.3901H61.7806C62.0237 26.3901 62.2494 26.451 62.4443 26.5575C62.8321 26.7682 63.0927 27.1615 63.0927 27.607V50.4667C63.0927 51.1404 62.5057 51.6858 61.7828 51.6858H37.7432C39.0115 52.6571 40.3018 53.5698 41.6052 54.4172H65.1125C65.2614 54.1347 65.3469 53.8153 65.3469 53.4742V26.3097C65.3469 25.1907 64.4312 24.2823 63.303 24.2823H50.637C50.6173 24.9994 50.5297 25.7057 50.3676 26.3901H54.9744H54.9722Z" fill="white"/>
<path d="M14.5845 37.1202V53.4763C14.5845 53.8174 14.6699 54.1368 14.8189 54.4193H28.5605" fill="white"/>
<path d="M14.5845 37.1202V53.4763C14.5845 53.8174 14.6699 54.1368 14.8189 54.4193H28.5605" stroke="white" stroke-width="1.15068" stroke-linecap="round" stroke-linejoin="round"/>
<path d="M25.665 51.6858H18.1513C17.7635 51.6858 17.4174 51.5293 17.1765 51.2816C16.9684 51.0665 16.8413 50.7797 16.8413 50.4667V40.8752" fill="white"/>
<path d="M25.665 51.6858H18.1513C17.7635 51.6858 17.4174 51.5293 17.1765 51.2816C16.9684 51.0665 16.8413 50.7797 16.8413 50.4667V40.8752" stroke="white" stroke-width="1.15068" stroke-linecap="round" stroke-linejoin="round"/>
<path d="M18.1093 26.3945C18.1224 26.3945 18.1377 26.3901 18.1509 26.3901H29.5639C29.4018 25.7035 29.3164 24.9973 29.2944 24.2823H17.3535C17.5835 24.982 17.8354 25.6861 18.1093 26.3945Z" fill="white"/>
<path d="M58.7879 45.85C59.2785 45.85 59.7627 45.8196 60.2293 45.7631C60.8207 45.6892 61.4429 45.5588 62.1351 45.3655L62.249 45.3329V39.7135C60.4746 40.7001 58.79 41.893 57.1778 43.1186C56.2687 43.8096 55.3683 44.518 54.4614 45.2177C55.9028 45.5958 57.3508 45.8479 58.7879 45.8479V45.85Z" fill="white"/>
<path d="M62.2498 47.5711C60.631 47.9274 59.0077 48.3512 57.4393 48.7597C54.9551 49.4072 52.39 50.0765 49.8138 50.4894C48.8215 50.648 47.8357 50.7632 46.8784 50.8305V50.8566H61.7788C62.0395 50.8566 62.2498 50.6828 62.2498 50.4698V47.5711Z" fill="white"/>
<path d="M31.4824 46.226C33.1494 47.8796 34.891 49.4246 36.6763 50.8544H43.5022C40.9282 50.7001 38.4113 50.1199 36.1549 48.9009C31.8592 46.5802 29.0749 42.3168 25.892 38.6336C24.961 37.5558 23.9292 36.5019 22.8164 35.5566C25.1779 39.2377 28.0848 42.8557 31.4824 46.226Z" fill="white"/>
<path d="M17.6772 42.1277V50.4676C17.6772 50.5763 17.732 50.6567 17.778 50.7045C17.87 50.8001 18.0058 50.8544 18.1482 50.8544H24.8427" fill="white"/>
<path d="M17.6772 42.1277V50.4676C17.6772 50.5763 17.732 50.6567 17.778 50.7045C17.87 50.8001 18.0058 50.8544 18.1482 50.8544H24.8427" stroke="white" stroke-width="0.575342" stroke-linecap="round" stroke-linejoin="round"/>
<path d="M61.7781 50.8546C62.0388 50.8546 62.2491 50.6807 62.2491 50.4678V47.5712C58.0891 48.486 54.019 49.8137 49.8131 50.4895C48.7134 50.6655 47.5918 50.7937 46.4702 50.8546H61.7781Z" fill="white"/>
<path d="M60.2822 46.1761C52.7641 47.1126 45.476 40.4546 38.1813 42.4885C36.0914 43.0709 34.201 44.3399 32.2886 45.4351C33.5153 46.6433 34.845 47.7211 36.3543 48.5359C38.3916 49.6354 40.8056 50.2765 43.5263 50.4394C43.5263 50.4394 45.2021 50.5351 46.4464 50.4394C47.5154 50.3808 48.626 50.2591 49.7454 50.0787C52.3019 49.668 54.8583 49.0009 57.3315 48.3577C58.9087 47.947 60.5385 47.5233 62.1595 47.1648L62.2515 47.1452V45.7675C61.6053 45.9479 60.9525 46.0935 60.2844 46.1761H60.2822Z" fill="white"/>
<path d="M30.1528 47.4521C15.2639 32.5052 9.79342 13.4417 17.0554 3.38354C16.4349 3.83535 15.8429 4.33321 15.2945 4.88371C5.88935 14.3256 11.0846 34.8454 26.8975 50.72C42.7083 66.5924 63.1506 71.8079 72.5536 62.3682C73.102 61.8177 73.5979 61.2234 74.048 60.6005C64.0289 67.8908 45.0394 62.3989 30.1528 47.4521Z" fill="white"/>
<path d="M14.1848 71.5029V70.9615H9.84375V71.5029H11.7171V76.0705H12.319V71.5029H14.1848Z" fill="white"/>
<path d="M18.7136 75.5215H15.629V73.7753H18.4879V73.2339H15.629V71.5029H18.7061V70.9615H15.0346V76.0705H18.7136V75.5215Z" fill="white"/>
<path d="M22.1214 75.6054C20.9929 75.6054 20.1051 74.6903 20.1051 73.516C20.1051 72.3341 20.9929 71.4266 22.1214 71.4266C22.9942 71.4266 23.6938 71.8994 23.9496 72.723L24.5214 72.5552C24.213 71.5258 23.28 70.8623 22.1214 70.8623C20.6543 70.8623 19.5032 72.029 19.5032 73.516C19.5032 75.003 20.6543 76.1697 22.1214 76.1697C23.28 76.1697 24.213 75.5063 24.5214 74.4387L23.9496 74.3014C23.6863 75.1402 22.9942 75.6054 22.1214 75.6054Z" fill="white"/>
<path d="M29.813 70.9615H29.2187V73.2262H26.1942V70.9615H25.5999V76.0705H26.1942V73.7676H29.2187V76.0705H29.813V70.9615Z" fill="white"/>
<path d="M38.4672 70.9615H37.9481L35.7512 75.1707L33.5543 70.9615H33.0352V76.0705H33.607V72.2425L35.6007 76.0705H35.9092L37.8954 72.2425V76.0705H38.4672V70.9615Z" fill="white"/>
<path d="M44.2711 76.0705L42.0141 70.9615H41.4649L39.2078 76.0705H39.8473L40.4116 74.7742H43.0674L43.6316 76.0705H44.2711ZM42.8341 74.2328H40.6448L41.7432 71.7088L42.8341 74.2328Z" fill="white"/>
<path d="M49.2243 70.9615H48.63V73.2262H45.6055V70.9615H45.0111V76.0705H45.6055V73.7676H48.63V76.0705H49.2243V70.9615Z" fill="white"/>
<path d="M52.9133 70.8623C51.4462 70.8623 50.3026 72.0367 50.3026 73.516C50.3026 75.003 51.4462 76.1697 52.9133 76.1697C54.3729 76.1697 55.5164 75.003 55.5164 73.516C55.5164 72.0367 54.3729 70.8623 52.9133 70.8623ZM52.9133 75.5978C51.7848 75.5978 50.9045 74.698 50.9045 73.516C50.9045 72.3417 51.7848 71.4266 52.9133 71.4266C54.0343 71.4266 54.9146 72.3417 54.9146 73.516C54.9146 74.698 54.0343 75.5978 52.9133 75.5978Z" fill="white"/>
<path d="M60.2296 71.5029V70.9615H55.8886V71.5029H57.7619V76.0705H58.3638V71.5029H60.2296Z" fill="white"/>
<path d="M62.6102 70.8623C61.5344 70.8623 60.8196 71.4495 60.8196 72.3264C60.8196 73.1424 61.3839 73.4855 62.0309 73.6304L63.167 73.882C63.7312 74.0117 63.987 74.2023 63.987 74.6827C63.987 75.247 63.5281 75.6359 62.7607 75.6359C61.9783 75.6359 61.3989 75.2317 61.2861 74.5149L60.6616 74.6446C60.782 75.613 61.6397 76.1697 62.708 76.1697C63.8366 76.1697 64.5814 75.5825 64.5814 74.6522C64.5814 73.8363 64.0096 73.4779 63.3099 73.3254L62.2115 73.0737C61.7375 72.9746 61.4516 72.7687 61.4516 72.3112C61.4516 71.7621 61.9181 71.3885 62.5952 71.3885C63.2873 71.3885 63.7914 71.785 63.9043 72.4027L64.4986 72.2654C64.3256 71.4266 63.6184 70.8623 62.6102 70.8623Z" fill="white"/>
<path d="M70.1259 76.0705L67.8688 70.9615H67.3196L65.0625 76.0705H65.702L66.2663 74.7742H68.9221L69.4864 76.0705H70.1259ZM68.6889 74.2328H66.4995L67.598 71.7088L68.6889 74.2328Z" fill="white"/>
<path d="M74.8125 70.9615H74.1655L72.3297 75.247L70.494 70.9615H69.847L72.0438 76.0705H72.6156L74.8125 70.9615Z" fill="white"/>
<path d="M27.4235 79.9604H9.84375" stroke="white" stroke-width="0.575342" stroke-linecap="round" stroke-linejoin="round"/>
<path d="M74.0484 80.7188H57.2329" stroke="white" stroke-width="0.575342" stroke-linecap="round" stroke-linejoin="round"/>
</g>
</svg>
