<svg width="72" height="72" viewBox="0 0 72 72" fill="none" xmlns="http://www.w3.org/2000/svg">
<mask id="mask0_370_285" style="mask-type:alpha" maskUnits="userSpaceOnUse" x="0" y="0" width="72" height="72">
<circle cx="36" cy="36" r="36" fill="#FD2394"/>
</mask>
<g mask="url(#mask0_370_285)">
<path fill-rule="evenodd" clip-rule="evenodd" d="M-0.000488281 108C19.8818 108 35.9995 91.8821 35.9995 71.9999C35.9995 52.1176 19.8818 35.9999 -0.000488281 35.9999C-19.8827 35.9999 -36.0005 52.1176 -36.0005 71.9999C-36.0005 91.8821 -19.8827 108 -0.000488281 108ZM72.0009 108C91.8832 108 108.001 91.8821 108.001 71.9999C108.001 52.1176 91.8832 35.9999 72.0009 35.9999C52.1187 35.9999 36.0009 52.1176 36.0009 71.9999C36.0009 91.8821 52.1187 108 72.0009 108Z" fill="#EBEBEB"/>
</g>
</svg>
